<svg id="visual" viewBox="0 0 900 600" width="900" height="600" xmlns="http://www.w3.org/2000/svg" xmlns:xlink="http://www.w3.org/1999/xlink" version="1.1"><path d="M0 467L21.5 469.8C43 472.7 86 478.3 128.8 487.7C171.7 497 214.3 510 257.2 500C300 490 343 457 385.8 433.7C428.7 410.3 471.3 396.7 514.2 401.8C557 407 600 431 642.8 433.3C685.7 435.7 728.3 416.3 771.2 413.8C814 411.3 857 425.7 878.5 432.8L900 440L900 601L878.5 601C857 601 814 601 771.2 601C728.3 601 685.7 601 642.8 601C600 601 557 601 514.2 601C471.3 601 428.7 601 385.8 601C343 601 300 601 257.2 601C214.3 601 171.7 601 128.8 601C86 601 43 601 21.5 601L0 601Z" fill="#efe9e9" stroke-linecap="round" stroke-linejoin="miter"></path></svg>